<?xml version="1.0" standalone="no"?>
<!DOCTYPE svg PUBLIC "-//W3C//DTD SVG 20010904//EN"
 "http://www.w3.org/TR/2001/REC-SVG-20010904/DTD/svg10.dtd">
<svg version="1.0" xmlns="http://www.w3.org/2000/svg"
 width="500.000000pt" height="500.000000pt" viewBox="0 0 500.000000 500.000000"
 preserveAspectRatio="xMidYMid meet">
<metadata>
Created by potrace 1.12, written by Peter Selinger 2001-2015
</metadata>
<g transform="translate(0.000000,500.000000) scale(0.100000,-0.100000)"
fill="#000000" stroke="none">
<path d="M100 4320 l0 -580 580 0 580 0 0 580 0 580 -580 0 -580 0 0 -580z
m990 0 l0 -410 -410 0 -410 0 0 410 0 410 410 0 410 0 0 -410z"/>
<path d="M430 4320 l0 -250 250 0 250 0 0 250 0 250 -250 0 -250 0 0 -250z"/>
<path d="M1583 4818 l2 -83 168 -3 168 -2 -3 -78 -3 -77 -168 -3 -168 -2 1
-43 c1 -23 1 -59 1 -79 l-1 -38 -80 0 -80 0 0 -170 0 -170 80 0 80 0 0 -80 0
-80 -80 0 -80 0 0 -85 0 -85 80 0 80 0 1 -122 c0 -68 0 -142 -1 -165 l-2 -43
86 0 86 0 0 -80 0 -80 -160 0 -160 0 0 165 0 165 -255 0 -255 0 0 -85 0 -85
165 0 165 0 0 -80 0 -80 -80 0 -81 0 3 -87 3 -88 78 -3 77 -3 0 -74 0 -75 -80
0 -80 0 0 -85 0 -85 -85 0 -85 0 2 -167 3 -168 163 -3 162 -2 0 -75 0 -75 -80
0 -80 0 0 -90 0 -90 80 0 80 0 0 -74 0 -75 -37 -3 c-21 -2 -93 -2 -160 0
l-123 3 0 80 0 79 -245 0 -245 0 -2 163 -3 162 -168 3 -167 2 0 -85 0 -85 80
0 80 0 0 -80 0 -80 -80 0 -80 0 0 -335 0 -335 85 0 85 0 0 165 0 164 83 3 82
3 3 83 3 82 239 0 240 0 0 -85 0 -85 165 0 165 0 0 -80 0 -80 -165 0 -165 0 0
-85 0 -85 170 0 170 0 0 80 0 80 80 0 80 0 0 -330 0 -330 85 0 84 0 3 83 3 82
78 3 77 3 0 -86 0 -85 85 0 85 0 0 -75 0 -75 -85 0 -85 0 0 -85 0 -84 -82 -3
-83 -3 -2 -40 c-1 -22 -2 -57 -2 -77 l-1 -37 -77 -3 -78 -3 0 -170 0 -170 165
0 165 0 3 82 3 83 79 0 79 0 3 -82 3 -83 165 0 165 0 3 88 3 87 -86 0 -85 0 0
80 0 80 85 0 85 0 0 80 0 80 80 0 80 0 0 90 0 90 -80 0 -80 0 -2 163 -3 162
-87 3 -88 3 0 -86 0 -85 -75 0 -75 0 0 165 0 165 -85 0 -85 0 0 85 0 85 -85 0
-85 0 0 165 0 165 -80 0 -80 0 0 80 0 80 250 0 250 0 -2 168 -3 167 -82 3 -83
3 0 159 0 159 83 3 82 3 3 163 2 162 80 0 80 0 0 80 0 79 83 3 82 3 3 88 3 87
-165 0 -166 0 -2 163 -3 162 -82 3 -83 3 0 79 0 80 85 0 85 0 0 245 0 245 75
0 75 0 0 -80 0 -80 165 0 165 0 0 -165 0 -164 83 -3 82 -3 3 -77 3 -78 -161 0
-160 0 0 165 0 165 -90 0 -90 0 0 -250 0 -250 248 -2 247 -3 0 -160 0 -160
-82 -3 -83 -3 0 -164 0 -165 -165 0 -165 0 0 -85 0 -85 250 0 250 0 0 -85 0
-85 80 0 80 0 0 -75 0 -75 -80 0 -80 0 0 -85 0 -85 -80 0 -80 0 0 85 0 85 -80
0 -80 0 0 80 0 80 -90 0 -90 0 0 -170 0 -170 85 0 85 0 0 -75 0 -74 -82 -3
-83 -3 -3 -82 -3 -83 -165 0 -165 0 3 -87 3 -88 83 -3 82 -3 0 -79 0 -80 80 0
79 0 3 -82 3 -83 168 -3 167 -2 0 170 0 170 -85 0 -85 0 0 -80 0 -80 -80 0
-80 0 0 160 0 160 325 0 325 0 0 -80 0 -80 -80 0 -80 0 0 -85 0 -85 85 0 85 0
0 80 0 79 83 3 82 3 3 88 3 87 -86 0 -86 0 3 78 3 77 83 3 82 3 0 84 0 85 -85
0 -86 0 3 78 3 77 83 3 82 3 0 79 0 80 80 0 79 0 3 83 3 82 160 0 160 0 0 -75
0 -75 -82 -3 -83 -3 0 -244 0 -244 -82 -3 -83 -3 0 -170 0 -170 85 -2 c47 -1
122 -2 168 -2 l83 -1 -3 -157 -3 -158 -77 -3 -78 -3 0 86 0 86 -87 -3 -88 -3
-3 -83 -3 -82 -244 0 -245 0 0 -85 0 -85 80 0 80 0 0 -80 0 -80 -80 0 -80 0 0
-85 0 -85 80 0 80 0 0 -80 0 -80 -80 0 -80 0 0 -80 0 -79 -82 -3 -83 -3 -3
-87 -3 -88 85 0 85 0 3 -82 3 -83 330 0 330 0 3 167 2 168 165 0 165 0 0 80 0
80 80 0 80 0 0 -165 0 -165 80 0 79 0 3 -82 3 -83 165 0 165 0 3 83 3 82 79 0
79 0 3 -83 3 -82 80 0 80 0 5 165 5 165 78 3 77 3 0 -86 0 -86 88 3 87 3 0 85
0 85 -82 3 -83 3 0 74 0 74 83 3 82 3 0 85 0 85 -82 3 -83 3 0 74 0 74 83 3
82 3 0 85 0 85 -167 3 -168 2 0 80 0 80 -80 0 -80 0 0 80 0 80 248 2 247 3 0
80 0 80 -252 3 -253 2 0 -80 0 -80 -80 0 -80 0 0 80 0 80 -245 0 -245 0 0 80
0 80 80 0 79 0 3 83 3 82 75 0 75 0 3 -82 3 -83 84 0 84 0 3 83 3 82 243 3
242 2 0 -85 0 -86 88 3 87 3 0 165 0 165 -168 3 -167 2 2 243 3 242 165 5 165
5 0 165 0 165 -87 3 -88 3 0 -86 0 -85 -165 0 -165 0 0 -330 0 -330 -160 0
-159 0 -3 83 -3 82 -85 0 -85 0 -3 -83 -3 -82 -239 0 -240 0 0 160 0 160 80 0
80 0 0 165 0 165 80 0 80 0 0 -165 0 -165 85 0 85 0 0 85 0 85 80 0 80 0 0
-85 0 -85 85 0 85 0 0 170 0 170 -80 0 -80 0 0 85 0 85 -85 0 -85 0 0 75 0 75
163 2 162 3 5 165 5 165 75 0 75 0 3 -82 3 -83 170 0 170 0 -3 88 -3 87 -125
2 c-69 1 -142 2 -162 3 l-38 0 0 80 0 80 -170 0 -170 0 0 -80 0 -79 -82 -3
-83 -3 -3 -82 -3 -83 -79 0 -80 0 0 -165 0 -165 -80 0 -80 0 -2 248 -3 247
-40 2 c-22 1 -57 2 -77 2 l-38 1 0 75 0 75 80 0 80 0 0 335 0 335 -420 0 -420
0 0 -85 0 -85 333 -2 332 -3 3 -157 3 -158 -81 0 -80 0 0 80 0 81 -87 -3 -88
-3 -2 -82 -3 -83 85 0 85 0 0 -80 0 -80 -160 0 -160 0 0 165 0 165 -90 0 -90
0 0 -80 0 -80 -75 0 -75 0 -2 163 -3 162 -82 3 -83 3 0 164 0 165 -85 0 -84 0
-3 -82 -3 -83 -77 -3 -78 -3 0 160 0 161 163 2 162 3 3 168 2 167 -85 0 -85 0
0 -80 0 -80 -80 0 -80 0 0 80 0 80 -255 0 -255 0 3 -82z m167 -578 l0 -160
-80 0 -80 0 0 153 c0 85 3 157 7 160 3 4 39 7 80 7 l73 0 0 -160z m0 -415 l0
-75 -80 0 -80 0 0 75 0 75 80 0 80 0 0 -75z m1490 -500 l0 -85 85 0 85 0 -2
-242 -3 -243 -242 -3 -243 -2 0 85 0 85 -85 0 -85 0 0 238 c0 131 3 242 7 245
3 4 114 7 245 7 l238 0 0 -85z m-1820 -165 l0 -81 -77 3 -78 3 -3 78 -3 77 81
0 80 0 0 -80z m498 3 l-3 -78 -77 -3 -78 -3 0 81 0 80 80 0 81 0 -3 -77z
m-168 -168 l0 -75 -80 0 -80 0 0 75 0 75 80 0 80 0 0 -75z m-330 -170 l0 -85
165 0 165 0 0 -75 0 -75 -165 0 -165 0 0 -85 0 -86 -77 3 -78 3 -3 83 -3 82
-79 0 -80 0 0 75 0 75 80 0 80 0 0 85 0 85 80 0 80 0 0 -85z m1320 -160 l0
-75 -75 0 -75 0 0 75 0 75 75 0 75 0 0 -75z m-990 -495 l0 -80 -160 0 -160 0
0 80 0 80 160 0 160 0 0 -80z m-1320 -165 l0 -75 -80 0 -80 0 0 75 0 75 80 0
80 0 0 -75z m2310 1 l0 -74 -37 -3 c-21 -2 -55 -3 -75 -1 l-38 3 0 75 0 74 75
0 75 0 0 -74z m830 -251 l0 -165 -75 0 -74 0 -3 83 c-2 45 -2 119 0 165 l3 82
75 0 74 0 0 -165z m500 -580 l0 -245 -245 0 -245 0 0 245 0 245 245 0 245 0 0
-245z m-830 -250 l0 -164 83 -3 82 -3 0 -75 0 -75 -82 -3 -83 -3 0 -79 0 -80
-80 0 -80 0 0 80 0 80 -80 0 -80 0 0 80 0 80 80 0 80 0 0 85 0 85 -80 0 -80 0
0 80 0 80 160 0 160 0 0 -165z m1320 0 l0 -165 85 0 85 0 0 -80 0 -80 -160 0
-159 0 -3 83 -3 82 -82 3 -83 3 0 74 0 74 83 3 82 3 3 83 3 82 74 0 75 0 0
-165z m-2312 -247 l3 -78 -161 0 -160 0 0 80 0 81 158 -3 157 -3 3 -77z m1982
2 l0 -80 -240 0 -240 0 0 80 0 80 240 0 240 0 0 -80z m-2310 -165 l0 -75 -80
0 -80 0 0 75 0 75 80 0 80 0 0 -75z m-170 -165 l0 -80 -80 0 -80 0 0 73 c0 41
3 77 7 80 3 4 39 7 80 7 l73 0 0 -80z m1320 0 l0 -80 -75 0 -75 0 0 80 0 80
75 0 75 0 0 -80z"/>
<path d="M3740 1175 l0 -85 85 0 85 0 0 85 0 85 -85 0 -85 0 0 -85z"/>
<path d="M2580 4815 l0 -85 85 0 85 0 0 85 0 85 -85 0 -85 0 0 -85z"/>
<path d="M3070 4820 l0 -80 -80 0 -81 0 3 -87 3 -88 83 -3 82 -3 0 86 0 85 85
0 85 0 0 85 0 85 -90 0 -90 0 0 -80z"/>
<path d="M3410 4815 l0 -85 85 0 85 0 0 85 0 85 -85 0 -85 0 0 -85z"/>
<path d="M3740 4320 l0 -580 583 2 582 3 2 578 2 577 -584 0 -585 0 0 -580z
m990 0 l0 -410 -410 0 -410 0 0 410 0 410 410 0 410 0 0 -410z"/>
<path d="M4070 4320 l0 -250 250 0 250 0 0 250 0 250 -250 0 -250 0 0 -250z"/>
<path d="M3240 4485 l0 -86 88 3 87 3 0 80 0 80 -87 3 -88 3 0 -86z"/>
<path d="M100 3495 l0 -85 163 -2 162 -3 3 -77 3 -78 -166 0 -165 0 0 -170 0
-170 165 0 166 0 -3 -77 -3 -78 -162 -3 -163 -2 0 -85 0 -85 168 2 167 3 3 78
3 77 74 0 75 0 0 -80 0 -80 90 0 90 0 0 85 0 85 -85 0 -85 0 0 80 0 80 85 0
85 0 0 80 0 79 78 3 77 3 3 88 3 87 -85 0 -85 0 -3 -82 -3 -83 -157 -3 -158
-3 0 81 0 80 80 0 81 0 -3 88 -3 87 -40 2 c-22 1 -57 2 -77 2 l-37 1 -3 78 -3
77 -167 3 -168 2 0 -85z"/>
<path d="M590 2335 l0 -85 90 0 90 0 0 85 0 85 -90 0 -90 0 0 -85z"/>
<path d="M4730 2335 l0 -86 88 3 87 3 0 80 0 80 -87 3 -88 3 0 -86z"/>
<path d="M592 1673 l3 -88 85 0 85 0 3 88 3 87 -91 0 -91 0 3 -87z"/>
<path d="M100 675 l0 -584 578 2 577 2 3 583 2 582 -580 0 -580 0 0 -585z
m990 5 l0 -410 -410 0 -410 0 0 410 0 410 410 0 410 0 0 -410z"/>
<path d="M430 680 l0 -250 250 0 250 0 0 250 0 250 -250 0 -250 0 0 -250z"/>
</g>
</svg>
